<svg width="32" height="32" viewBox="0 0 32 32" xmlns="http://www.w3.org/2000/svg">
<path d="M12 14.6667C12.2637 14.6667 12.5215 14.5885 12.7407 14.4419C12.96 14.2954 13.1309 14.0872 13.2318 13.8436C13.3327 13.5999 13.3591 13.3318 13.3077 13.0732C13.2562 12.8146 13.1292 12.577 12.9428 12.3905C12.7563 12.204 12.5187 12.0771 12.2601 12.0256C12.0014 11.9742 11.7334 12.0006 11.4897 12.1015C11.2461 12.2024 11.0378 12.3733 10.8913 12.5926C10.7448 12.8118 10.6666 13.0696 10.6666 13.3333C10.6666 13.6869 10.8071 14.0261 11.0572 14.2761C11.3072 14.5262 11.6463 14.6667 12 14.6667ZM19.1466 18.9733C18.2553 19.6919 17.1449 20.0838 16 20.0838C14.855 20.0838 13.7446 19.6919 12.8533 18.9733C12.581 18.747 12.23 18.6381 11.8774 18.6706C11.5248 18.7031 11.1996 18.8744 10.9733 19.1467C10.747 19.4189 10.6381 19.77 10.6706 20.1226C10.7031 20.4751 10.8743 20.8003 11.1466 21.0267C12.5084 22.1635 14.226 22.7862 16 22.7862C17.7739 22.7862 19.4915 22.1635 20.8533 21.0267C21.1256 20.8003 21.2968 20.4751 21.3293 20.1226C21.3618 19.77 21.253 19.4189 21.0266 19.1467C20.9146 19.0118 20.7771 18.9004 20.6219 18.8187C20.4668 18.737 20.2971 18.6867 20.1225 18.6706C19.77 18.6381 19.4189 18.747 19.1466 18.9733ZM16 2.66666C13.3629 2.66666 10.785 3.44864 8.59236 4.91373C6.39971 6.37881 4.69074 8.4612 3.68157 10.8975C2.6724 13.3339 2.40836 16.0148 2.92283 18.6012C3.4373 21.1876 4.70717 23.5634 6.57188 25.4281C8.43658 27.2928 10.8123 28.5627 13.3988 29.0771C15.9852 29.5916 18.6661 29.3276 21.1024 28.3184C23.5388 27.3092 25.6211 25.6002 27.0862 23.4076C28.5513 21.2149 29.3333 18.6371 29.3333 16C29.3333 14.249 28.9884 12.5152 28.3184 10.8975C27.6483 9.27987 26.6662 7.81001 25.4281 6.5719C24.1899 5.33379 22.7201 4.35166 21.1024 3.6816C19.4847 3.01153 17.7509 2.66666 16 2.66666ZM16 26.6667C13.8903 26.6667 11.828 26.0411 10.0739 24.869C8.31976 23.6969 6.95259 22.031 6.14525 20.0819C5.33792 18.1329 5.12668 15.9882 5.53826 13.919C5.94983 11.8499 6.96573 9.94928 8.45749 8.45752C9.94925 6.96576 11.8499 5.94986 13.919 5.53828C15.9881 5.1267 18.1328 5.33794 20.0819 6.14528C22.031 6.95261 23.6969 8.31978 24.869 10.0739C26.041 11.828 26.6666 13.8903 26.6666 16C26.6666 18.829 25.5428 21.5421 23.5424 23.5425C21.5421 25.5429 18.8289 26.6667 16 26.6667ZM23.4933 12.1733C22.7303 11.4493 21.7185 11.0457 20.6666 11.0457C19.6148 11.0457 18.603 11.4493 17.84 12.1733C17.6215 12.4284 17.5074 12.7565 17.5204 13.0921C17.5333 13.4276 17.6724 13.7459 17.9099 13.9834C18.1473 14.2209 18.4657 14.36 18.8012 14.3729C19.1368 14.3859 19.4649 14.2718 19.72 14.0533C19.8439 13.9284 19.9914 13.8292 20.1539 13.7615C20.3163 13.6938 20.4906 13.6589 20.6666 13.6589C20.8426 13.6589 21.0169 13.6938 21.1794 13.7615C21.3419 13.8292 21.4893 13.9284 21.6133 14.0533C21.8631 14.3017 22.2011 14.441 22.5533 14.441C22.9055 14.441 23.2435 14.3017 23.4933 14.0533C23.7416 13.8035 23.881 13.4656 23.881 13.1133C23.881 12.7611 23.7416 12.4231 23.4933 12.1733Z" fill="#1B1B1B"/>
</svg>
