<svg width="36" height="36" viewBox="0 0 36 36" fill="none" xmlns="http://www.w3.org/2000/svg">
<path d="M15.1055 30.7544C15.1055 30.5344 15.057 30.3171 14.9637 30.1179C14.8703 29.9187 14.7343 29.7425 14.5652 29.6017C14.3961 29.461 14.1982 29.3591 13.9854 29.3034C13.7726 29.2477 13.5501 29.2394 13.3338 29.2793C11.3701 29.6396 8.89089 29.6938 8.2317 27.8423C7.65691 26.4083 6.70481 25.1565 5.47634 24.2198C5.38869 24.1721 5.30515 24.1172 5.22659 24.0557C5.11907 23.7721 4.92811 23.5277 4.67888 23.3549C4.42966 23.182 4.13389 23.0888 3.83058 23.0874H3.82326C3.42666 23.0873 3.04616 23.2443 2.76503 23.524C2.48391 23.8038 2.32506 24.1835 2.32326 24.5801C2.3174 25.8033 3.53976 26.5869 4.03566 26.8521C4.62043 27.4396 5.09039 28.1312 5.42141 28.8911C5.9678 30.4263 7.55568 32.7554 12.1201 32.4551C12.1216 32.5079 12.1231 32.5577 12.1238 32.6031L12.1304 33.0045C12.1304 33.4023 12.2884 33.7838 12.5697 34.0651C12.851 34.3464 13.2326 34.5045 13.6304 34.5045C14.0282 34.5045 14.4097 34.3464 14.691 34.0651C14.9723 33.7838 15.1304 33.4023 15.1304 33.0045L15.1231 32.5269C15.1157 32.2427 15.1055 31.831 15.1055 30.7544ZM31.106 8.06537C31.1536 7.87787 31.2005 7.66986 31.2415 7.43548C31.4841 5.76387 31.2726 4.05777 30.6292 2.49599C30.548 2.29238 30.4233 2.109 30.2637 1.95869C30.1042 1.80838 29.9137 1.69479 29.7056 1.62588C29.1716 1.4457 27.2 1.09121 23.4295 3.50088C20.2953 2.76332 17.0327 2.76332 13.8985 3.50088C10.1433 1.1265 8.1819 1.4487 7.65309 1.61862C7.43989 1.68474 7.24418 1.79773 7.08032 1.94931C6.91645 2.10088 6.78858 2.28721 6.70607 2.49462C6.04952 4.08639 5.84033 5.82728 6.10109 7.52928C6.13772 7.72117 6.17726 7.89843 6.21828 8.06102C4.97564 9.71618 4.31375 11.7351 4.33523 13.8047C4.33118 14.2664 4.35245 14.728 4.39895 15.1875C4.89995 22.0913 9.39995 24.164 12.5354 24.876C12.4702 25.0635 12.4109 25.2641 12.3582 25.4766C12.2642 25.8625 12.3271 26.27 12.5331 26.6096C12.7391 26.9492 13.0713 27.1933 13.457 27.2884C13.8427 27.3834 14.2504 27.3216 14.5905 27.1165C14.9307 26.9114 15.1757 26.5798 15.2717 26.1943C15.3672 25.6945 15.6118 25.2354 15.9734 24.8774C16.192 24.686 16.3503 24.4352 16.429 24.1555C16.5077 23.8757 16.5035 23.5792 16.4167 23.3018C16.33 23.0245 16.1645 22.7784 15.9404 22.5934C15.7163 22.4083 15.4433 22.2924 15.1546 22.2597C9.97341 21.668 7.72413 19.5571 7.38576 14.9121C7.34828 14.5442 7.33141 14.1745 7.33523 13.8047C7.31116 12.3297 7.79847 10.8918 8.71437 9.73535C8.8064 9.61478 8.90443 9.49891 9.00807 9.38817C9.19172 9.18267 9.3152 8.93055 9.36494 8.65948C9.41469 8.38841 9.38879 8.10887 9.29007 7.85156C9.18888 7.58085 9.11096 7.302 9.05717 7.01805C8.93497 6.21063 8.97505 5.38694 9.17507 4.59519C10.4788 4.9634 11.7057 5.56275 12.7976 6.36471C12.9781 6.48497 13.1824 6.565 13.3966 6.59938C13.6108 6.63375 13.8299 6.62167 14.039 6.56394C17.0707 5.74119 20.2669 5.74171 23.2983 6.56544C23.5086 6.6231 23.7288 6.6345 23.9439 6.59884C24.159 6.56319 24.3637 6.48133 24.5441 6.35891C25.6309 5.55361 26.8527 4.9489 28.1521 4.57326C28.3512 5.34599 28.3958 6.15044 28.2832 6.94044C28.2288 7.25175 28.144 7.55694 28.0297 7.85158C27.931 8.1089 27.9051 8.38844 27.9549 8.65951C28.0046 8.93058 28.1281 9.1827 28.3117 9.3882C28.4275 9.51857 28.5432 9.65919 28.6472 9.79103C29.5566 10.9279 30.0357 12.3492 30 13.8047C30.0027 14.1941 29.9839 14.5833 29.9436 14.9707C29.6133 19.5542 27.3552 21.6665 22.1499 22.2597C21.8611 22.2926 21.5881 22.4087 21.364 22.5939C21.14 22.7791 20.9745 23.0254 20.8879 23.3029C20.8012 23.5803 20.797 23.877 20.8758 24.1568C20.9547 24.4366 21.1131 24.6874 21.3318 24.8789C21.7048 25.2464 21.9499 25.7239 22.0313 26.2412C22.1326 26.6427 22.1792 27.0562 22.1697 27.4702V30.9712C22.155 31.9424 22.155 32.6704 22.155 33.0044C22.155 33.4022 22.3131 33.7837 22.5944 34.065C22.8757 34.3463 23.2572 34.5044 23.655 34.5044C24.0528 34.5044 24.4344 34.3463 24.7157 34.065C24.997 33.7837 25.155 33.4022 25.155 33.0044C25.155 32.6792 25.155 31.9658 25.1697 30.9946V27.4702C25.1818 26.8069 25.1036 26.1451 24.9375 25.5029C24.89 25.2921 24.8318 25.0838 24.7632 24.8789C27.0451 24.4998 29.1184 23.3233 30.6141 21.5588C32.1098 19.7943 32.9309 17.5563 32.9311 15.2432C32.9806 14.7653 33.0036 14.2851 33 13.8047C33.0333 11.7328 32.3659 9.71045 31.106 8.0654L31.106 8.06537Z" fill="#1B1B1B"/>
</svg>
