<svg width="403" height="366" viewBox="0 0 403 366" fill="none" xmlns="http://www.w3.org/2000/svg">
<g filter="url(#filter0_d_18_65)">
<path d="M122.47 162.347V146.156C122.413 146.156 122.403 146.152 122.437 146.144C122.063 145.995 118.647 144.37 119.874 134.947C119.874 134.947 114.682 134.947 117.927 119.378H103.649C103.649 119.378 98.457 118.756 106.245 108.792C106.245 108.792 107.503 106.86 108.856 104.433C108.856 104.433 97.159 103.187 101.053 85.1276C101.053 85.1276 101.643 84.4203 102.682 83.8821L112.735 75.7865L113.384 63.3317C113.384 63.3317 113.943 59.038 115.98 55.3832L103.649 39.6676C103.649 39.6676 101.702 34.6857 104.947 24.0991C104.947 24.0991 107.543 18.4945 108.192 19.74L115.331 34.6857C115.331 22.2309 115.764 19.1172 115.98 19.1172C115.98 19.1172 122.47 -0.187706 140.642 1.05777C140.642 1.05777 144.536 15.3808 149.08 12.2671L179.583 9.77611C179.583 9.77611 201 16.0035 201.649 19.74C201.649 19.74 226.311 19.74 225.013 27.8356L228.907 41.5358H230.854C230.854 41.5358 250.974 49.6315 249.676 75.7865C251.233 75.7865 231.503 141.174 226.311 136.192C226.311 136.192 233.45 174.802 236.046 175.425C236.046 175.425 237.344 171.066 262.007 182.275L304.841 202.825L337.94 222.13C390.51 260.117 397 326.751 397 326.751C393.106 330.487 369.093 323.014 315.225 341.696C261.358 360.379 210.735 356.642 210.735 356.642C191.741 357.059 170.965 355.985 150.151 354.064C118.486 351.142 86.7338 346.261 61.0367 341.696C28.0208 335.831 5 330.487 5 330.487V326.128C15.3841 258.872 37.5789 239.567 43.9404 230.849C50.3019 222.13 151.676 179.652 151.676 179.652L149.08 166.442C144.831 167.688 141.442 168.575 140.642 168.575C122.47 169.197 122.47 162.347 122.47 162.347Z" fill="white"/>
<path d="M122.47 146.156V162.347C122.47 162.347 122.47 169.197 140.642 168.575C141.442 168.575 144.831 167.688 149.08 166.442M122.47 146.156C121.432 146.156 136.099 144.911 138.046 138.06M122.47 146.156C122.47 146.156 118.576 144.911 119.874 134.947M211.384 87.6186C211.384 87.6186 203.596 85.1276 203.596 92.6005C203.596 92.6005 203.596 98.2051 206.192 101.942C206.192 101.942 210.086 105.055 201.649 105.678M119.874 134.947C119.874 134.947 139.344 135.57 147.133 125.606M119.874 134.947C119.874 134.947 114.682 134.947 117.927 119.378M117.927 119.378H122.47M117.927 119.378H103.649C103.649 119.378 98.457 118.756 106.245 108.792C106.245 108.792 107.503 106.86 108.856 104.433M112.086 87.6186V95.7142C112.449 97.457 110.576 101.346 108.856 104.433M112.086 87.6186H119.225M112.086 87.6186C112.086 87.6186 110.151 83.4478 107.623 82.8678C105.703 82.4275 102.682 83.8821 102.682 83.8821M119.225 87.6186C119.225 87.6186 115.98 95.7142 126.364 107.546C126.364 107.546 144.536 121.246 147.782 99.4506C147.782 99.4506 149.729 86.9958 146.484 83.8821M119.225 87.6186C119.225 87.6186 126.454 80.1473 132.585 79.523C138.262 78.9449 146.484 83.8821 146.484 83.8821M146.484 83.8821L193.212 84.5049M193.212 84.5049L191.265 92.6005C201 79.5229 206.192 79.523 206.192 79.523C216.29 76.0349 219.601 84.1247 220.661 90.7323M193.212 84.5049L197.755 78.9002M108.856 104.433C108.856 104.433 97.159 103.187 101.053 85.1276C101.053 85.1276 101.643 84.4203 102.682 83.8821M102.682 83.8821L112.735 75.7865L113.384 63.3317C113.384 63.3317 113.943 59.038 115.98 55.3832M167.252 62.0863C167.252 62.0863 197.106 72.6728 197.106 79.523M149.08 52.7452C149.08 52.7452 214.629 55.2361 215.278 64.5772M139.344 47.7632C139.344 47.7632 204.894 40.2904 207.49 49.6315M115.98 55.3832C117.046 53.4705 118.517 51.7327 120.523 50.877C120.523 50.877 142.755 38.3744 167.252 34.6857M115.98 55.3832L103.649 39.6676C103.649 39.6676 101.702 34.6857 104.947 24.0991C104.947 24.0991 107.543 18.4945 108.192 19.74L115.331 34.6857C115.331 22.2309 115.764 19.1172 115.98 19.1172C115.98 19.1172 122.47 -0.187706 140.642 1.05777C140.642 1.05777 144.536 15.3808 149.08 12.2671L179.583 9.77611C179.583 9.77611 201 16.0035 201.649 19.74C201.649 19.74 226.311 19.74 225.013 27.8356L228.907 41.5358H230.854C230.854 41.5358 250.974 49.6315 249.676 75.7865C251.233 75.7865 231.503 141.174 226.311 136.192M226.311 136.192C221.119 131.21 217.225 115.642 217.225 115.642M226.311 136.192C226.311 136.192 233.45 174.802 236.046 175.425M220.661 90.7323C221.304 94.7416 221.119 98.2051 221.119 98.2051C215.278 120.001 197.106 115.642 197.106 115.642C196.457 136.815 191.265 143.665 191.265 143.665L183.477 151.761L171.146 158.611C172.493 159.042 158.618 163.646 149.08 166.442M220.661 90.7323C220.661 90.7323 230.854 90.7323 228.907 104.433M236.046 175.425C236.046 175.425 237.344 171.066 262.007 182.275L304.841 202.825L337.94 222.13C390.51 260.117 397 326.751 397 326.751C393.106 330.487 369.093 323.014 315.225 341.696M236.046 175.425C245.194 182.493 246.993 188.427 244.453 193.363M149.08 166.442L167.252 192.862M149.08 166.442L151.676 179.652M154.272 192.862L151.676 179.652M151.676 179.652C151.676 179.652 50.3019 222.13 43.9404 230.849C37.5789 239.567 15.3841 258.872 5 326.128V330.487C5 330.487 28.0208 335.831 61.0367 341.696M151.676 179.652C151.676 179.652 145.031 186.428 138.514 198.551M210.735 356.642C210.735 356.642 261.358 360.379 315.225 341.696M210.735 356.642C191.741 357.059 170.965 355.985 150.151 354.064M210.735 356.642C210.304 257.544 227.031 253.766 240.724 207.5M315.225 341.696C315.225 341.696 307.321 277.749 315.225 277.749M150.151 354.064C127.038 315.123 126.113 244.824 126.113 244.824C126.45 230.24 129.932 217.634 134.224 207.5M150.151 354.064C118.486 351.142 86.7338 346.261 61.0367 341.696M138.514 198.551C138.514 198.551 145.528 210.119 185.283 214.568C185.283 214.568 236.442 208.926 244.453 193.363M138.514 198.551C137.052 201.27 135.597 204.259 134.224 207.5M244.453 193.363C243.247 198.518 241.999 203.193 240.724 207.5M61.0367 341.696C61.0367 341.696 83.5849 290.207 71.566 277.749M134.224 207.5C134.224 207.5 181.5 224.5 185.283 222L210.735 217L240.724 207.5" stroke="black" stroke-width="2"/>
</g>
<defs>
<filter id="filter0_d_18_65" x="0" y="-0.00012207" width="402.042" height="365.947" filterUnits="userSpaceOnUse" color-interpolation-filters="sRGB">
<feFlood flood-opacity="0" result="BackgroundImageFix"/>
<feColorMatrix in="SourceAlpha" type="matrix" values="0 0 0 0 0 0 0 0 0 0 0 0 0 0 0 0 0 0 127 0" result="hardAlpha"/>
<feOffset dy="4"/>
<feGaussianBlur stdDeviation="2"/>
<feComposite in2="hardAlpha" operator="out"/>
<feColorMatrix type="matrix" values="0 0 0 0 0 0 0 0 0 0 0 0 0 0 0 0 0 0 0.25 0"/>
<feBlend mode="normal" in2="BackgroundImageFix" result="effect1_dropShadow_18_65"/>
<feBlend mode="normal" in="SourceGraphic" in2="effect1_dropShadow_18_65" result="shape"/>
</filter>
</defs>
</svg>
