<svg width="36" height="36" viewBox="0 0 36 36" fill="none" xmlns="http://www.w3.org/2000/svg">
<path d="M26.25 13.4985C24.9071 13.4979 23.585 13.8301 22.4018 14.4653C22.2938 14.1809 22.1019 13.9362 21.8515 13.7635C21.6011 13.5908 21.3041 13.4984 21 13.4985H15C14.8029 13.4984 14.6078 13.5371 14.4258 13.6125C14.2438 13.6878 14.0784 13.7983 13.939 13.9376C13.7997 14.0769 13.6892 14.2423 13.6139 14.4243C13.5386 14.6064 13.4998 14.8015 13.5 14.9985V32.9985C13.4998 33.1955 13.5386 33.3906 13.6139 33.5727C13.6892 33.7547 13.7997 33.9201 13.939 34.0594C14.0784 34.1987 14.2438 34.3092 14.4258 34.3846C14.6078 34.4599 14.8029 34.4986 15 34.4985H21C21.197 34.4986 21.3921 34.4599 21.5741 34.3846C21.7562 34.3092 21.9216 34.1987 22.0609 34.0594C22.2002 33.9201 22.3107 33.7547 22.386 33.5727C22.4613 33.3906 22.5001 33.1955 22.5 32.9985V24.7485C22.5 24.3507 22.658 23.9691 22.9393 23.6878C23.2206 23.4065 23.6021 23.2485 24 23.2485C24.3978 23.2485 24.7793 23.4065 25.0606 23.6878C25.3419 23.9691 25.5 24.3507 25.5 24.7485V32.9985C25.4998 33.1955 25.5386 33.3906 25.6139 33.5727C25.6892 33.7547 25.7997 33.9201 25.939 34.0594C26.0784 34.1987 26.2438 34.3092 26.4258 34.3846C26.6078 34.4599 26.8029 34.4986 27 34.4985H33C33.197 34.4986 33.3921 34.4599 33.5741 34.3846C33.7562 34.3092 33.9216 34.1987 34.0609 34.0594C34.2002 33.9201 34.3107 33.7547 34.386 33.5727C34.4613 33.3906 34.5001 33.1955 34.5 32.9985V21.7485C34.4972 19.5613 33.6272 17.4645 32.0806 15.9179C30.534 14.3713 28.4372 13.5012 26.25 13.4985ZM31.5 31.4985H28.5V24.7485C28.5 23.555 28.0259 22.4104 27.1819 21.5665C26.338 20.7226 25.1934 20.2485 24 20.2485C22.8065 20.2485 21.6619 20.7226 20.818 21.5665C19.9741 22.4104 19.5 23.555 19.5 24.7485V31.4985H16.5V16.4985H19.5V17.5532C19.5001 17.864 19.5968 18.1671 19.7766 18.4206C19.9564 18.6741 20.2105 18.8655 20.5038 18.9684C20.7971 19.0713 21.1151 19.0806 21.4139 18.995C21.7126 18.9095 21.9775 18.7332 22.1718 18.4907C22.845 17.6357 23.7683 17.0124 24.8129 16.7076C25.8575 16.4028 26.9712 16.4318 27.9985 16.7906C29.0259 17.1493 29.9155 17.82 30.5432 18.7088C31.1709 19.5977 31.5054 20.6604 31.5 21.7485V31.4985ZM10.5 13.4985H4.49996C4.30294 13.4984 4.10784 13.5371 3.9258 13.6125C3.74376 13.6878 3.57836 13.7983 3.43905 13.9376C3.29974 14.0769 3.18925 14.2423 3.11391 14.4243C3.03857 14.6064 2.99984 14.8015 2.99996 14.9985V32.9985C2.99984 33.1955 3.03856 33.3906 3.1139 33.5727C3.18925 33.7547 3.29973 33.9201 3.43904 34.0594C3.57835 34.1987 3.74376 34.3092 3.9258 34.3846C4.10784 34.4599 4.30294 34.4986 4.49996 34.4985H10.5C10.697 34.4986 10.8921 34.4599 11.0741 34.3846C11.2562 34.3092 11.4216 34.1987 11.5609 34.0594C11.7002 33.9201 11.8107 33.7547 11.886 33.5727C11.9613 33.3906 12.0001 33.1955 12 32.9985V14.9985C12.0001 14.8015 11.9613 14.6064 11.886 14.4243C11.8107 14.2423 11.7002 14.0769 11.5609 13.9376C11.4216 13.7983 11.2562 13.6878 11.0741 13.6125C10.8921 13.5371 10.697 13.4984 10.5 13.4985ZM8.99996 31.4985H5.99996V16.4985H8.99996V31.4985ZM7.52193 2.313C6.86547 2.27371 6.20788 2.36835 5.58915 2.59117C4.97041 2.81399 4.40346 3.16033 3.92278 3.60914C3.4421 4.05795 3.05773 4.59983 2.79304 5.20185C2.52836 5.80387 2.38889 6.45343 2.38312 7.11104C2.37735 7.76865 2.5054 8.42056 2.75948 9.02713C3.01357 9.63369 3.38837 10.1822 3.8611 10.6394C4.33384 11.0966 4.89462 11.4528 5.50935 11.6865C6.12408 11.9201 6.77991 12.0263 7.43696 11.9985H7.47944C8.13763 12.0376 8.79689 11.9421 9.41692 11.7178C10.037 11.4935 10.6047 11.1451 11.0856 10.694C11.5664 10.2428 11.9502 9.69836 12.2136 9.09387C12.4769 8.48938 12.6142 7.83754 12.6171 7.17819C12.62 6.51884 12.4884 5.86583 12.2304 5.25905C11.9724 4.65227 11.5934 4.10447 11.1165 3.64912C10.6396 3.19377 10.0749 2.84044 9.45686 2.61071C8.83882 2.38098 8.18043 2.27968 7.52192 2.313H7.52193ZM7.47945 8.9985H7.43696C7.17756 9.03 6.91442 9.00567 6.66519 8.92714C6.41597 8.84862 6.18641 8.71771 5.99192 8.5432C5.79743 8.36869 5.6425 8.15461 5.53753 7.91531C5.43255 7.67602 5.37995 7.41705 5.38326 7.15577C5.38326 6.03662 6.22262 5.31299 7.52193 5.31299C7.78398 5.27805 8.05047 5.29968 8.30345 5.37641C8.55644 5.45314 8.79004 5.5832 8.98853 5.75782C9.18702 5.93243 9.34579 6.14756 9.45414 6.3887C9.56249 6.62984 9.6179 6.8914 9.61665 7.15577C9.61665 8.2749 8.7773 8.9985 7.47945 8.9985Z" fill="#1B1B1B"/>
</svg>
